#N canvas 573 326 605 329 10;
#X obj 146 118 bng 12 250 50 0 empty empty save_preset 15 6 0 8 -262144
-258113 -260097;
#X symbolatom 105 160 15 0 0 0 - - -, f 15;
#X obj 139 185 t b b;
#N canvas 855 106 586 576 SaveAndLoad 0;
#X obj 26 341 textfile;
#X obj 40 235 r \$1-savedata;
#X obj 40 257 list prepend add;
#X obj 23 145 t a b b;
#X msg 62 164 clear;
#X obj 40 278 list trim;
#X obj 23 203 t a;
#X obj 57 303 t b;
#X obj 351 151 s \$1-LoadPath;
#X obj 56 3 inlet;
#X obj 23 85 symbol;
#X obj 23 65 bng 15 250 50 0 empty empty empty 17 7 0 10 -262144 -1
-1;
#X obj 23 43 r \$1-SaveNow;
#X text 238 191 send all gui data;
#X text 83 142 write file;
#X msg 238 236 symbol \$1/presets.pdps;
#X obj 340 4 inlet;
#X obj 340 130 symbol;
#X obj 191 539 s;
#X obj 191 462 list split 1;
#X obj 191 507 list;
#X obj 191 484 t b a;
#X msg 230 256 read \$1 \, rewind \, bang;
#X obj 57 322 del 0;
#X obj 43 183 s prepare-save;
#X text 93 315 HACK!!!;
#X obj 26 370 route preset_names_coll;
#X text 35 388 LOAD names;
#X obj 223 519 makefilename \$1-%s-preset;
#X obj 26 403 s \$1-preset_names_coll;
#N canvas 0 50 450 300 onebngVanilla 0;
#X obj 103 27 inlet;
#X obj 29 165 outlet;
#X obj 16 26 inlet;
#X obj 35 75 t 0 b;
#X obj 29 138 spigot;
#X msg 111 77 1;
#X connect 0 0 5 0;
#X connect 2 0 3 0;
#X connect 3 0 4 1;
#X connect 3 1 4 0;
#X connect 4 0 1 0;
#X connect 5 0 4 1;
#X restore 209 358 pd onebngVanilla;
#X obj 318 318 loadbang;
#X obj 209 403 s \$1-recall-preset-number;
#X text 200 447 LOAD data into tables;
#X text 209 341 init first preset;
#X msg 209 380 0;
#X obj 249 423 s \$1-sel-preset-number;
#X msg 249 380 0;
#X msg 23 118 write \$1/presets.pdps;
#X obj 74 84 s \$1-savepath;
#X obj 230 214 makefilename %s/\$1-presets.pdps;
#X obj 282 546 print;
#X connect 0 0 7 0;
#X connect 0 0 26 0;
#X connect 0 1 30 0;
#X connect 1 0 2 0;
#X connect 2 0 5 0;
#X connect 3 0 6 0;
#X connect 3 1 24 0;
#X connect 3 2 4 0;
#X connect 4 0 6 0;
#X connect 5 0 0 0;
#X connect 6 0 0 0;
#X connect 7 0 23 0;
#X connect 9 0 10 1;
#X connect 9 0 17 1;
#X connect 9 0 39 0;
#X connect 10 0 38 0;
#X connect 11 0 10 0;
#X connect 12 0 11 0;
#X connect 15 0 22 0;
#X connect 16 0 17 0;
#X connect 17 0 8 0;
#X connect 17 0 15 0;
#X connect 19 0 21 0;
#X connect 19 1 20 1;
#X connect 20 0 18 0;
#X connect 21 0 20 0;
#X connect 21 1 28 0;
#X connect 22 0 0 0;
#X connect 23 0 0 0;
#X connect 26 0 29 0;
#X connect 26 1 19 0;
#X connect 28 0 18 1;
#X connect 30 0 35 0;
#X connect 30 0 37 0;
#X connect 31 0 30 1;
#X connect 35 0 32 0;
#X connect 37 0 36 0;
#X connect 38 0 3 0;
#X restore 153 79 pd SaveAndLoad;
#X obj 153 35 loadbang;
#X obj 15 31 loadbang;
#X text 103 147 Preset Name;
#X floatatom 105 118 5 1 10 0 - - -, f 5;
#X obj 225 121 - 1;
#X obj 228 181 - 1;
#X obj 225 140 s \$1-sel-preset-number;
#X obj 228 200 s \$1-recall-preset-number;
#X obj 139 206 s \$1-SaveNow;
#X obj 171 254 s \$1-StorePreset;
#X obj 22 185 s \$1-PresetName;
#X obj 14 10 r \$1-set_Name;
#X msg 105 78 set \$1;
#X obj 228 162 f;
#X obj 146 133 bng 12 250 50 0 empty empty load_preset 15 6 0 8 -262144
-258113 -260097;
#X msg 105 59 1;
#X obj 101 101 cnv 15 118 15 empty \$0-cnv 1003-Presets 5 8 0 10 -260097
-66577 0;
#X msg 15 54 set _empty;
#N canvas 327 444 777 342 presetnames 0;
#X obj 129 168 r \$1-PresetName;
#X obj 96 191 symbol;
#X obj 96 164 bng 15 250 50 0 empty empty empty 17 7 0 10 -262144 -1
-1;
#X text 96 149 store;
#X obj 96 134 r \$1-StorePreset;
#X obj 96 235 f;
#X obj 147 82 loadbang;
#X msg 147 105 0;
#X obj 274 62 r \$1-sel-preset-number;
#X text 316 45 LOAD;
#X obj 274 152 s \$1-set_Name;
#X obj 274 106 list;
#X obj 274 84 t b f f b, f 23;
#X obj 550 100 f;
#X obj 575 101 + 1;
#X obj 550 71 until;
#X obj 550 52 t f b;
#X msg 588 69 0;
#X obj 550 8 r prepare-save;
#X obj 550 243 s \$1-savedata;
#X obj 550 200 pack 0 symbol;
#X msg 550 30 10;
#X text 576 27 <- number of preset slots;
#X obj 550 125 t f f b;
#X text 619 42 SAVE;
#X obj 625 130 list;
#X obj 625 108 t b f;
#X msg 589 173 symbol _empty;
#X msg 409 106 symbol _empty;
#X msg 147 220 _empty _empty _empty _empty _empty _empty _empty _empty
_empty _empty;
#X obj 147 254 list;
#X msg 550 219 preset_names_coll \$2 \$1;
#X obj 62 80 unpack s f;
#X obj 96 211 t s b;
#N canvas 433 129 450 300 listIndex 0;
#X obj 93 47 inlet;
#X obj 150 46 inlet;
#X obj 93 158 list split;
#X obj 121 188 list split 1;
#X obj 190 121 loadbang;
#X msg 190 143 1;
#X obj 121 210 outlet;
#X obj 93 96 list;
#X msg 248 181 list-idx;
#X connect 0 0 7 0;
#X connect 1 0 2 1;
#X connect 2 1 3 0;
#X connect 3 0 6 0;
#X connect 4 0 5 0;
#X connect 5 0 3 1;
#X connect 7 0 2 0;
#X restore 274 127 pd listIndex;
#N canvas 140 480 468 352 listRepl 0;
#X obj 72 36 inlet;
#X obj 198 35 inlet;
#X obj 284 35 inlet;
#X obj 72 78 t a b a b;
#X text 287 17 List;
#X text 193 17 Idx;
#X text 66 18 newElement;
#X obj 141 105 list;
#X obj 141 129 list split;
#X obj 198 57 t f f;
#X obj 169 151 list split;
#X obj 226 172 t a b;
#X obj 253 196 f;
#X obj 253 218 > 0;
#X obj 72 184 list prepend;
#X obj 72 248 route 0 1;
#X obj 72 270 list;
#X obj 72 312 outlet;
#X obj 157 249 list prepend;
#X obj 226 125 list length;
#X obj 72 290 list;
#X obj 72 226 list prepend 0;
#X msg 155 191 0;
#X obj 72 58 list split 1;
#X msg 129 288 list-replace;
#X connect 0 0 23 0;
#X connect 1 0 9 0;
#X connect 2 0 7 1;
#X connect 3 0 14 0;
#X connect 3 1 7 0;
#X connect 3 2 19 0;
#X connect 3 3 22 0;
#X connect 3 3 16 1;
#X connect 3 3 18 1;
#X connect 3 3 14 1;
#X connect 7 0 8 0;
#X connect 8 0 14 1;
#X connect 8 1 10 0;
#X connect 8 2 11 0;
#X connect 9 0 8 1;
#X connect 9 1 12 1;
#X connect 10 1 16 1;
#X connect 10 1 18 1;
#X connect 11 0 16 1;
#X connect 11 0 18 1;
#X connect 11 1 12 0;
#X connect 12 0 13 0;
#X connect 13 0 21 1;
#X connect 14 0 21 0;
#X connect 15 0 16 0;
#X connect 15 1 18 0;
#X connect 16 0 20 0;
#X connect 18 0 20 0;
#X connect 19 0 10 1;
#X connect 20 0 17 0;
#X connect 20 0 7 1;
#X connect 21 0 15 0;
#X connect 22 0 21 1;
#X connect 23 0 3 0;
#X restore 65 261 pd listRepl;
#N canvas 433 129 450 300 listIndex 0;
#X obj 93 47 inlet;
#X obj 150 46 inlet;
#X obj 93 158 list split;
#X obj 121 188 list split 1;
#X obj 190 121 loadbang;
#X msg 190 143 1;
#X obj 121 210 outlet;
#X obj 93 96 list;
#X connect 0 0 7 0;
#X connect 1 0 2 1;
#X connect 2 1 3 0;
#X connect 3 0 6 0;
#X connect 4 0 5 0;
#X connect 5 0 3 1;
#X connect 7 0 2 0;
#X restore 625 151 pd listIndex;
#X obj 62 47 r \$1-preset_names_coll;
#X obj 65 283 s \$0-replacedList;
#X obj 646 75 r \$0-replacedList;
#X obj 356 35 r \$0-replacedList;
#X obj 179 254 r \$0-replacedList;
#X connect 0 0 1 1;
#X connect 1 0 33 0;
#X connect 2 0 1 0;
#X connect 4 0 2 0;
#X connect 5 0 35 1;
#X connect 6 0 7 0;
#X connect 6 0 29 0;
#X connect 7 0 5 1;
#X connect 8 0 12 0;
#X connect 11 0 34 0;
#X connect 12 0 11 0;
#X connect 12 1 34 1;
#X connect 12 2 5 1;
#X connect 12 3 28 0;
#X connect 13 0 14 0;
#X connect 13 0 23 0;
#X connect 14 0 13 1;
#X connect 15 0 13 0;
#X connect 16 0 15 0;
#X connect 16 1 17 0;
#X connect 17 0 13 1;
#X connect 18 0 21 0;
#X connect 20 0 31 0;
#X connect 21 0 16 0;
#X connect 23 0 20 0;
#X connect 23 1 26 0;
#X connect 23 2 27 0;
#X connect 25 0 36 0;
#X connect 26 0 25 0;
#X connect 26 1 36 1;
#X connect 27 0 20 1;
#X connect 28 0 10 0;
#X connect 29 0 30 0;
#X connect 30 0 35 2;
#X connect 31 0 19 0;
#X connect 32 0 35 0;
#X connect 32 1 35 1;
#X connect 33 0 35 0;
#X connect 33 1 5 0;
#X connect 34 0 10 0;
#X connect 35 0 38 0;
#X connect 36 0 20 1;
#X connect 37 0 32 0;
#X connect 39 0 25 1;
#X connect 40 0 11 1;
#X connect 41 0 30 0;
#X restore 22 204 pd presetnames;
#X obj 321 275 s \$0-cnv;
#X text 382 275 \$1-\$2;
#X obj 321 235 symbol \$1-Presets;
#X msg 153 58 symbol ./presets;
#X obj 216 35 inlet;
#X msg 321 255 label \$1;
#X connect 0 0 2 0;
#X connect 1 0 14 0;
#X connect 2 0 12 0;
#X connect 2 1 13 0;
#X connect 4 0 26 0;
#X connect 4 0 19 0;
#X connect 4 0 3 1;
#X connect 5 0 21 0;
#X connect 5 0 25 0;
#X connect 7 0 8 0;
#X connect 7 0 17 1;
#X connect 8 0 10 0;
#X connect 9 0 11 0;
#X connect 15 0 1 0;
#X connect 16 0 7 0;
#X connect 17 0 9 0;
#X connect 18 0 17 0;
#X connect 18 0 3 1;
#X connect 19 0 16 0;
#X connect 21 0 1 0;
#X connect 25 0 28 0;
#X connect 26 0 3 0;
#X connect 27 0 3 0;
#X connect 28 0 23 0;
#X coords 0 -1 1 1 120 80 2 100 100;
