#N canvas 827 397 153 77 10;
#N canvas 808 112 319 258 tableSaver 0;
#X obj 15 8 r prepare-save;
#X obj 15 101 pack s s f, f 15;
#X obj 15 80 t a a;
#X obj 15 146 symbol;
#X obj 66 157 symbol;
#X obj 15 189 pack s s f, f 15;
#X msg 15 211 \; \$2 write \$1;
#X obj 102 58 r \$1-sel-preset-number;
#X obj 58 80 r \$1-savepath;
#X msg 15 124 \$2/tables/\$3-\$1.txt;
#X obj 15 41 symbol \$2;
#X connect 0 0 10 0;
#X connect 1 0 9 0;
#X connect 2 0 1 0;
#X connect 2 1 4 0;
#X connect 3 0 5 0;
#X connect 4 0 5 1;
#X connect 5 0 6 0;
#X connect 7 0 1 2;
#X connect 7 0 5 2;
#X connect 8 0 1 1;
#X connect 9 0 3 0;
#X connect 10 0 2 0;
#X restore 15 16 pd tableSaver;
#N canvas 89 502 288 272 tableLoader 1;
#X msg 18 222 \; \$2 read \$1;
#X obj 18 202 pack s s f, f 15;
#X obj 18 116 pack s s f, f 15;
#X obj 18 95 t a a;
#X obj 18 161 symbol;
#X obj 61 180 symbol;
#X obj 18 4 r \$1-LoadPath;
#X obj 18 26 t b s;
#X obj 91 75 r \$1-sel-preset-number;
#X msg 18 138 \$2/tables/\$3-\$1.txt;
#X obj 18 67 symbol \$2;
#X connect 1 0 0 0;
#X connect 2 0 9 0;
#X connect 3 0 2 0;
#X connect 3 1 5 0;
#X connect 4 0 1 0;
#X connect 5 0 1 1;
#X connect 6 0 7 0;
#X connect 7 0 10 0;
#X connect 7 1 2 1;
#X connect 8 0 2 2;
#X connect 8 0 1 2;
#X connect 9 0 4 0;
#X connect 10 0 3 0;
#X restore 14 36 pd tableLoader;
