#N canvas 571 140 864 366 10;
#X obj 557 136 f;
#X obj 582 137 + 1;
#X obj 557 107 until;
#X obj 557 88 t f b;
#X msg 605 108 0;
#X obj 557 44 r prepare-save;
#X obj 557 236 pack 0 symbol;
#X msg 557 66 10;
#X text 583 63 <- number of preset slots;
#X obj 557 161 t f f b;
#X text 626 78 SAVE;
#X obj 632 166 list;
#X obj 632 144 t b f;
#X msg 596 209 symbol _empty;
#X obj 557 277 list prepend \$2;
#X obj 557 299 s \$1-savedata;
#X msg 557 255 \$1 \$2;
#N canvas 433 129 450 300 listIndex 0;
#X obj 93 47 inlet;
#X obj 150 46 inlet;
#X obj 93 158 list split;
#X obj 121 188 list split 1;
#X obj 190 121 loadbang;
#X msg 190 143 1;
#X obj 121 210 outlet;
#X obj 93 96 list;
#X connect 0 0 7 0;
#X connect 1 0 2 1;
#X connect 2 1 3 0;
#X connect 3 0 6 0;
#X connect 4 0 5 0;
#X connect 5 0 3 1;
#X connect 7 0 2 0;
#X restore 632 186 pd listIndex;
#X text 326 31 LOAD;
#X obj 314 112 list;
#X obj 314 90 t b f f b, f 23;
#X msg 444 130 symbol _empty;
#N canvas 433 129 450 300 listIndex 0;
#X obj 93 47 inlet;
#X obj 150 46 inlet;
#X obj 93 158 list split;
#X obj 121 188 list split 1;
#X obj 190 121 loadbang;
#X msg 190 143 1;
#X obj 121 210 outlet;
#X obj 93 96 list;
#X msg 282 159 list-idx;
#X connect 0 0 7 0;
#X connect 1 0 2 1;
#X connect 2 1 3 0;
#X connect 3 0 6 0;
#X connect 4 0 5 0;
#X connect 5 0 3 1;
#X connect 7 0 2 0;
#X restore 314 133 pd listIndex;
#X obj 314 48 r \$1-recall-preset-number;
#X obj 314 158 s preset-\$1-\$2;
#X obj 35 141 symbol;
#X obj 35 117 bng 15 250 50 0 empty empty empty 17 7 0 10 -262144 -1
-1;
#X text 35 99 store;
#X obj 35 84 r \$1-StorePreset;
#X obj 66 188 f;
#X obj 117 32 loadbang;
#X msg 91 59 0;
#X msg 117 190 _empty _empty _empty _empty _empty _empty _empty _empty
_empty _empty;
#X obj 117 224 list;
#X obj 35 161 t s b;
#N canvas 214 365 468 352 listRepl 0;
#X obj 72 36 inlet;
#X obj 198 35 inlet;
#X obj 284 35 inlet;
#X obj 72 78 t a b a b;
#X text 287 17 List;
#X text 193 17 Idx;
#X text 66 18 newElement;
#X obj 141 105 list;
#X obj 141 129 list split;
#X obj 198 57 t f f;
#X obj 169 151 list split;
#X obj 226 172 t a b;
#X obj 253 196 f;
#X obj 253 218 > 0;
#X obj 72 184 list prepend;
#X obj 72 248 route 0 1;
#X obj 72 270 list;
#X obj 72 312 outlet;
#X obj 157 249 list prepend;
#X obj 226 125 list length;
#X obj 72 290 list;
#X obj 72 226 list prepend 0;
#X msg 155 191 0;
#X obj 72 58 list split 1;
#X msg 110 282 list-replace;
#X connect 0 0 23 0;
#X connect 1 0 9 0;
#X connect 2 0 7 1;
#X connect 3 0 14 0;
#X connect 3 1 7 0;
#X connect 3 2 19 0;
#X connect 3 3 22 0;
#X connect 3 3 16 1;
#X connect 3 3 18 1;
#X connect 3 3 14 1;
#X connect 7 0 8 0;
#X connect 8 0 14 1;
#X connect 8 1 10 0;
#X connect 8 2 11 0;
#X connect 9 0 8 1;
#X connect 9 1 12 1;
#X connect 10 1 16 1;
#X connect 10 1 18 1;
#X connect 11 0 16 1;
#X connect 11 0 18 1;
#X connect 11 1 12 0;
#X connect 12 0 13 0;
#X connect 13 0 21 1;
#X connect 14 0 21 0;
#X connect 15 0 16 0;
#X connect 15 1 18 0;
#X connect 16 0 20 0;
#X connect 18 0 20 0;
#X connect 19 0 10 1;
#X connect 20 0 17 0;
#X connect 20 0 7 1;
#X connect 21 0 15 0;
#X connect 22 0 21 1;
#X connect 23 0 3 0;
#X restore 35 251 pd listRepl;
#X obj 68 118 r \$1-\$2;
#X obj 35 273 s \$0-replacedList;
#X obj 657 119 r \$0-replacedList;
#X obj 335 68 r \$0-replacedList;
#X obj 211 9 r \$1-sel-preset-number;
#X obj 701 144 bng 15 250 50 0 empty empty empty 17 7 0 10 -262144
-1 -1;
#X obj 183 82 r \$1-\$2-preset;
#X obj 183 104 unpack f s;
#X floatatom 211 53 5 0 0 0 - - -, f 5;
#X obj 166 226 r \$0-replacedList;
#X obj 211 31 + 0;
#X obj 183 126 + 1;
#X connect 0 0 1 0;
#X connect 0 0 9 0;
#X connect 1 0 0 1;
#X connect 2 0 0 0;
#X connect 3 0 2 0;
#X connect 3 1 4 0;
#X connect 4 0 0 1;
#X connect 5 0 7 0;
#X connect 6 0 16 0;
#X connect 7 0 3 0;
#X connect 9 0 6 0;
#X connect 9 1 12 0;
#X connect 9 2 13 0;
#X connect 11 0 17 0;
#X connect 12 0 11 0;
#X connect 12 1 17 1;
#X connect 13 0 6 1;
#X connect 14 0 15 0;
#X connect 16 0 14 0;
#X connect 17 0 6 1;
#X connect 19 0 22 0;
#X connect 20 0 19 0;
#X connect 20 1 22 1;
#X connect 20 2 29 1;
#X connect 20 3 21 0;
#X connect 21 0 24 0;
#X connect 22 0 24 0;
#X connect 23 0 20 0;
#X connect 25 0 34 0;
#X connect 26 0 25 0;
#X connect 28 0 26 0;
#X connect 29 0 35 1;
#X connect 30 0 31 0;
#X connect 30 0 32 0;
#X connect 31 0 29 1;
#X connect 32 0 33 0;
#X connect 33 0 35 2;
#X connect 34 0 35 0;
#X connect 34 1 29 0;
#X connect 35 0 37 0;
#X connect 36 0 25 1;
#X connect 38 0 11 1;
#X connect 39 0 19 1;
#X connect 40 0 46 0;
#X connect 41 0 11 0;
#X connect 42 0 43 0;
#X connect 43 0 47 0;
#X connect 43 1 35 0;
#X connect 45 0 33 0;
#X connect 46 0 29 1;
#X connect 46 0 44 0;
#X connect 47 0 35 1;
