#N canvas 406 486 540 267 10;
#X obj 142 87 t f f;
#X obj 338 121 f;
#X obj 363 122 + 1;
#X obj 338 102 until;
#X obj 338 78 t f b;
#X msg 376 100 0;
#X obj 338 142 t f f;
#X obj 338 178 pack 0 0;
#X obj 338 31 r prepare-save;
#X text 361 54 <- this value is the number;
#X msg 338 56 10;
#X text 339 13 SaveFile;
#X obj 19 146 f;
#X obj 19 82 bng 15 250 50 0 empty empty empty 17 7 0 10 -262144 -1
-1;
#X text 34 84 store;
#X text 139 51 Load preset Datas;
#X text 21 106 value to save;
#X obj 19 170 tabwrite \$1-\$2-preset;
#X obj 19 189 table \$1-\$2-preset 10;
#X obj 383 159 tabread \$1-\$2-preset;
#X obj 142 108 tabread \$1-\$2-preset;
#X obj 19 62 r \$1-StorePreset;
#X obj 142 67 f;
#X obj 142 148 r \$1-sel-preset-number;
#X obj 142 33 r \$1-recall-preset-number;
#X text 382 68 of slots;
#X obj 142 128 s preset-\$1-\$2;
#X obj 338 198 list prepend \$2;
#X obj 34 123 r \$1-\$2;
#X obj 338 218 s \$1-savedata;
#X connect 0 0 20 0;
#X connect 1 0 2 0;
#X connect 1 0 6 0;
#X connect 2 0 1 1;
#X connect 3 0 1 0;
#X connect 4 0 3 0;
#X connect 4 1 5 0;
#X connect 5 0 1 1;
#X connect 6 0 7 0;
#X connect 6 1 19 0;
#X connect 7 0 27 0;
#X connect 8 0 10 0;
#X connect 10 0 4 0;
#X connect 12 0 17 0;
#X connect 13 0 12 0;
#X connect 19 0 7 1;
#X connect 20 0 26 0;
#X connect 21 0 13 0;
#X connect 22 0 0 0;
#X connect 23 0 17 1;
#X connect 24 0 22 0;
#X connect 27 0 29 0;
#X connect 28 0 12 1;
